<?xml version="1.0" standalone="no"?>
<!DOCTYPE svg PUBLIC "-//W3C//DTD SVG 20010904//EN"
 "http://www.w3.org/TR/2001/REC-SVG-20010904/DTD/svg10.dtd">
<svg version="1.0" xmlns="http://www.w3.org/2000/svg"
 width="700.000000pt" height="700.000000pt" viewBox="0 0 700.000000 700.000000"
 preserveAspectRatio="xMidYMid meet">
<metadata>
Created by potrace 1.14, written by Peter Selinger 2001-2017
</metadata>
<g transform="translate(0.000000,700.000000) scale(0.100000,-0.100000)"
fill="#000000" stroke="none">
<path d="M3474 6676 c-11 -8 -47 -28 -79 -46 -33 -17 -76 -40 -95 -52 -44 -26
-721 -408 -775 -438 -22 -12 -53 -29 -70 -39 -16 -10 -50 -29 -75 -43 -25 -14
-207 -117 -405 -228 -198 -112 -376 -212 -395 -223 -19 -11 -69 -39 -110 -62
-41 -23 -93 -53 -115 -65 -412 -232 -590 -333 -605 -342 -13 -9 -15 -196 -15
-1603 0 -876 2 -1595 5 -1598 3 -2 58 -35 123 -73 173 -101 168 -98 347 -204
91 -54 181 -107 200 -117 19 -11 118 -70 220 -130 102 -61 367 -217 590 -348
223 -131 421 -248 440 -260 19 -12 168 -100 330 -195 315 -185 308 -181 430
-253 85 -50 95 -51 143 -9 9 8 17 12 17 9 0 -4 25 9 55 28 30 19 57 35 60 35
3 0 22 10 43 23 20 13 66 40 102 59 36 20 187 104 335 188 149 84 288 163 310
175 42 24 241 136 310 175 22 13 60 34 85 48 25 13 59 32 75 42 17 10 50 29
75 42 25 14 105 60 179 102 73 42 135 76 138 76 2 0 20 10 41 23 20 13 62 37
92 54 63 34 288 161 340 192 19 11 62 34 95 52 33 17 65 34 70 39 6 4 33 20
60 35 72 39 209 118 215 123 6 5 7 3182 0 3191 -4 6 -426 257 -667 397 -18 11
-112 66 -209 124 -97 58 -195 116 -218 129 -49 28 -224 132 -247 146 -9 5 -32
19 -50 29 -34 19 -302 177 -952 561 -185 110 -354 210 -375 222 -45 27 -43 26
-68 9z"/>
</g>
</svg>
